<?xml version="1.0" encoding="UTF-8" standalone="no"?><svg xmlns="http://www.w3.org/2000/svg" xmlns:xlink="http://www.w3.org/1999/xlink" contentScriptType="application/ecmascript" contentStyleType="text/css" height="574px" preserveAspectRatio="none" style="width:1284px;height:574px;" version="1.1" viewBox="0 0 1284 574" width="1284px" zoomAndPan="magnify"><defs><filter height="300%" id="ft54d7i" width="300%" x="-1" y="-1"><feGaussianBlur result="blurOut" stdDeviation="2.0"/><feColorMatrix in="blurOut" result="blurOut2" type="matrix" values="0 0 0 0 0 0 0 0 0 0 0 0 0 0 0 0 0 0 .4 0"/><feOffset dx="4.0" dy="4.0" in="blurOut2" result="blurOut3"/><feBlend in="SourceGraphic" in2="blurOut3" mode="normal"/></filter></defs><g><!--class AbstractQueueFluentBuilder--><rect fill="#FEFECE" filter="url(#ft54d7i)" height="53.9375" style="stroke: #A80036; stroke-width: 1.5;" width="235" x="585" y="8"/><ellipse cx="600" cy="26.9688" fill="#B4A7E5" rx="11" ry="11" style="stroke: #A80036; stroke-width: 1.0;"/><path d="M595.9219,22.7344 L595.9219,20.5781 L603.3125,20.5781 L603.3125,22.7344 L600.8438,22.7344 L600.8438,30.8125 L603.3125,30.8125 L603.3125,32.9688 L595.9219,32.9688 L595.9219,30.8125 L598.3906,30.8125 L598.3906,22.7344 L595.9219,22.7344 Z "/><text fill="#000000" font-family="sans-serif" font-size="12" font-style="italic" lengthAdjust="spacingAndGlyphs" textLength="207" x="612" y="24.1387">«generierte Spec des Fluent API»</text><text fill="#000000" font-family="sans-serif" font-size="12" font-style="italic" lengthAdjust="spacingAndGlyphs" textLength="174" x="628.5" y="38.1074">AbstractQueueFluentBuilder</text><line style="stroke: #A80036; stroke-width: 1.5;" x1="586" x2="819" y1="45.9375" y2="45.9375"/><line style="stroke: #A80036; stroke-width: 1.5;" x1="586" x2="819" y1="53.9375" y2="53.9375"/><polygon fill="#FBFB77" filter="url(#ft54d7i)" points="890,22.5,890,47.6328,969,47.6328,969,32.5,959,22.5,890,22.5" style="stroke: #A80036; stroke-width: 1.0;"/><polygon fill="#FBFB77" points="890,22.5,890,31,820.434,35,890,39,890,47.6328,969,47.6328,969,32.5,959,22.5,890,22.5" style="stroke: #A80036; stroke-width: 1.0;"/><line style="stroke: #A80036; stroke-width: 1.0;" x1="959" x2="959" y1="22.5" y2="32.5"/><line style="stroke: #A80036; stroke-width: 1.0;" x1="969" x2="959" y1="32.5" y2="32.5"/><text fill="#000000" font-family="sans-serif" font-size="13" lengthAdjust="spacingAndGlyphs" textLength="58" x="896" y="39.5669">generiert</text><!--class QueueFluentBuilder--><rect fill="#FEFECE" filter="url(#ft54d7i)" height="53.9375" style="stroke: #A80036; stroke-width: 1.5;" width="240" x="1035.5" y="178"/><ellipse cx="1050.5" cy="196.9688" fill="#ADD1B2" rx="11" ry="11" style="stroke: #A80036; stroke-width: 1.0;"/><path d="M1053.4688,202.6094 Q1052.8906,202.9063 1052.25,203.0547 Q1051.6094,203.2031 1050.9063,203.2031 Q1048.4063,203.2031 1047.0859,201.5547 Q1045.7656,199.9063 1045.7656,196.7813 Q1045.7656,193.6563 1047.0859,192 Q1048.4063,190.3438 1050.9063,190.3438 Q1051.6094,190.3438 1052.2578,190.5 Q1052.9063,190.6563 1053.4688,190.9531 L1053.4688,193.6719 Q1052.8438,193.0938 1052.25,192.8203 Q1051.6563,192.5469 1051.0313,192.5469 Q1049.6875,192.5469 1049,193.6172 Q1048.3125,194.6875 1048.3125,196.7813 Q1048.3125,198.875 1049,199.9453 Q1049.6875,201.0156 1051.0313,201.0156 Q1051.6563,201.0156 1052.25,200.7422 Q1052.8438,200.4688 1053.4688,199.8906 L1053.4688,202.6094 Z "/><text fill="#000000" font-family="sans-serif" font-size="12" font-style="italic" lengthAdjust="spacingAndGlyphs" textLength="212" x="1062.5" y="194.1387">«Implementierung des Fluent API»</text><text fill="#000000" font-family="sans-serif" font-size="12" lengthAdjust="spacingAndGlyphs" textLength="123" x="1107" y="208.1074">QueueFluentBuilder</text><line style="stroke: #A80036; stroke-width: 1.5;" x1="1036.5" x2="1274.5" y1="215.9375" y2="215.9375"/><line style="stroke: #A80036; stroke-width: 1.5;" x1="1036.5" x2="1274.5" y1="223.9375" y2="223.9375"/><polygon fill="#FBFB77" filter="url(#ft54d7i)" points="1070.5,359.5,1070.5,384.6328,1240.5,384.6328,1240.5,369.5,1230.5,359.5,1070.5,359.5" style="stroke: #A80036; stroke-width: 1.0;"/><polygon fill="#FBFB77" points="1070.5,359.5,1070.5,384.6328,1240.5,384.6328,1240.5,369.5,1230.5,359.5,1159.5,359.5,1155.5,232.145,1151.5,359.5,1070.5,359.5" style="stroke: #A80036; stroke-width: 1.0;"/><line style="stroke: #A80036; stroke-width: 1.0;" x1="1230.5" x2="1230.5" y1="359.5" y2="369.5"/><line style="stroke: #A80036; stroke-width: 1.0;" x1="1240.5" x2="1230.5" y1="369.5" y2="369.5"/><text fill="#000000" font-family="sans-serif" font-size="13" lengthAdjust="spacingAndGlyphs" textLength="12" x="1076.5" y="376.5669">1.</text><text fill="#000000" font-family="sans-serif" font-size="13" lengthAdjust="spacingAndGlyphs" textLength="133" x="1092.5" y="376.5669">red Manuell erstellen</text><!--class QueueIntegrationTest--><rect fill="#FEFECE" filter="url(#ft54d7i)" height="48" style="stroke: #A80036; stroke-width: 1.5;" width="169" x="6" y="11"/><ellipse cx="21" cy="27" fill="#ADD1B2" rx="11" ry="11" style="stroke: #A80036; stroke-width: 1.0;"/><path d="M23.9688,32.6406 Q23.3906,32.9375 22.75,33.0859 Q22.1094,33.2344 21.4063,33.2344 Q18.9063,33.2344 17.5859,31.5859 Q16.2656,29.9375 16.2656,26.8125 Q16.2656,23.6875 17.5859,22.0313 Q18.9063,20.375 21.4063,20.375 Q22.1094,20.375 22.7578,20.5313 Q23.4063,20.6875 23.9688,20.9844 L23.9688,23.7031 Q23.3438,23.125 22.75,22.8516 Q22.1563,22.5781 21.5313,22.5781 Q20.1875,22.5781 19.5,23.6484 Q18.8125,24.7188 18.8125,26.8125 Q18.8125,28.9063 19.5,29.9766 Q20.1875,31.0469 21.5313,31.0469 Q22.1563,31.0469 22.75,30.7734 Q23.3438,30.5 23.9688,29.9219 L23.9688,32.6406 Z "/><text fill="#000000" font-family="sans-serif" font-size="12" lengthAdjust="spacingAndGlyphs" textLength="137" x="35" y="31.1543">QueueIntegrationTest</text><line style="stroke: #A80036; stroke-width: 1.5;" x1="7" x2="174" y1="43" y2="43"/><line style="stroke: #A80036; stroke-width: 1.5;" x1="7" x2="174" y1="51" y2="51"/><polygon fill="#FBFB77" filter="url(#ft54d7i)" points="245,22.5,245,47.6328,374,47.6328,374,32.5,364,22.5,245,22.5" style="stroke: #A80036; stroke-width: 1.0;"/><polygon fill="#FBFB77" points="245,22.5,245,31,175.191,35,245,39,245,47.6328,374,47.6328,374,32.5,364,22.5,245,22.5" style="stroke: #A80036; stroke-width: 1.0;"/><line style="stroke: #A80036; stroke-width: 1.0;" x1="364" x2="364" y1="22.5" y2="32.5"/><line style="stroke: #A80036; stroke-width: 1.0;" x1="374" x2="364" y1="32.5" y2="32.5"/><text fill="#000000" font-family="sans-serif" font-size="13" lengthAdjust="spacingAndGlyphs" textLength="108" x="251" y="39.5669">Manuell erstellen</text><!--class AbstractStatechartFluentBuilder--><rect fill="#FEFECE" filter="url(#ft54d7i)" height="53.9375" style="stroke: #A80036; stroke-width: 1.5;" width="235" x="616" y="178"/><ellipse cx="631" cy="196.9688" fill="#B4A7E5" rx="11" ry="11" style="stroke: #A80036; stroke-width: 1.0;"/><path d="M626.9219,192.7344 L626.9219,190.5781 L634.3125,190.5781 L634.3125,192.7344 L631.8438,192.7344 L631.8438,200.8125 L634.3125,200.8125 L634.3125,202.9688 L626.9219,202.9688 L626.9219,200.8125 L629.3906,200.8125 L629.3906,192.7344 L626.9219,192.7344 Z "/><text fill="#000000" font-family="sans-serif" font-size="12" font-style="italic" lengthAdjust="spacingAndGlyphs" textLength="207" x="643" y="194.1387">«generierte Spec des Fluent API»</text><text fill="#000000" font-family="sans-serif" font-size="12" font-style="italic" lengthAdjust="spacingAndGlyphs" textLength="201" x="646" y="208.1074">AbstractStatechartFluentBuilder</text><line style="stroke: #A80036; stroke-width: 1.5;" x1="617" x2="850" y1="215.9375" y2="215.9375"/><line style="stroke: #A80036; stroke-width: 1.5;" x1="617" x2="850" y1="223.9375" y2="223.9375"/><polygon fill="#FBFB77" filter="url(#ft54d7i)" points="921,192.5,921,217.6328,1000,217.6328,1000,202.5,990,192.5,921,192.5" style="stroke: #A80036; stroke-width: 1.0;"/><polygon fill="#FBFB77" points="921,192.5,921,201,851.434,205,921,209,921,217.6328,1000,217.6328,1000,202.5,990,192.5,921,192.5" style="stroke: #A80036; stroke-width: 1.0;"/><line style="stroke: #A80036; stroke-width: 1.0;" x1="990" x2="990" y1="192.5" y2="202.5"/><line style="stroke: #A80036; stroke-width: 1.0;" x1="1000" x2="990" y1="202.5" y2="202.5"/><text fill="#000000" font-family="sans-serif" font-size="13" lengthAdjust="spacingAndGlyphs" textLength="58" x="927" y="209.5669">generiert</text><!--class StatechartFluentBuilder--><rect fill="#FEFECE" filter="url(#ft54d7i)" height="53.9375" style="stroke: #A80036; stroke-width: 1.5;" width="240" x="219.5" y="512"/><ellipse cx="234.5" cy="530.9688" fill="#ADD1B2" rx="11" ry="11" style="stroke: #A80036; stroke-width: 1.0;"/><path d="M237.4688,536.6094 Q236.8906,536.9063 236.25,537.0547 Q235.6094,537.2031 234.9063,537.2031 Q232.4063,537.2031 231.0859,535.5547 Q229.7656,533.9063 229.7656,530.7813 Q229.7656,527.6563 231.0859,526 Q232.4063,524.3438 234.9063,524.3438 Q235.6094,524.3438 236.2578,524.5 Q236.9063,524.6563 237.4688,524.9531 L237.4688,527.6719 Q236.8438,527.0938 236.25,526.8203 Q235.6563,526.5469 235.0313,526.5469 Q233.6875,526.5469 233,527.6172 Q232.3125,528.6875 232.3125,530.7813 Q232.3125,532.875 233,533.9453 Q233.6875,535.0156 235.0313,535.0156 Q235.6563,535.0156 236.25,534.7422 Q236.8438,534.4688 237.4688,533.8906 L237.4688,536.6094 Z "/><text fill="#000000" font-family="sans-serif" font-size="12" font-style="italic" lengthAdjust="spacingAndGlyphs" textLength="212" x="246.5" y="528.1387">«Implementierung des Fluent API»</text><text fill="#000000" font-family="sans-serif" font-size="12" lengthAdjust="spacingAndGlyphs" textLength="149" x="278" y="542.1074">StatechartFluentBuilder</text><line style="stroke: #A80036; stroke-width: 1.5;" x1="220.5" x2="458.5" y1="549.9375" y2="549.9375"/><line style="stroke: #A80036; stroke-width: 1.5;" x1="220.5" x2="458.5" y1="557.9375" y2="557.9375"/><polygon fill="#FBFB77" filter="url(#ft54d7i)" points="529,526.5,529,551.6328,618,551.6328,618,536.5,608,526.5,529,526.5" style="stroke: #A80036; stroke-width: 1.0;"/><polygon fill="#FBFB77" points="529,526.5,529,535,459.699,539,529,543,529,551.6328,618,551.6328,618,536.5,608,526.5,529,526.5" style="stroke: #A80036; stroke-width: 1.0;"/><line style="stroke: #A80036; stroke-width: 1.0;" x1="608" x2="608" y1="526.5" y2="536.5"/><line style="stroke: #A80036; stroke-width: 1.0;" x1="618" x2="608" y1="536.5" y2="536.5"/><text fill="#000000" font-family="sans-serif" font-size="13" lengthAdjust="spacingAndGlyphs" textLength="68" x="535" y="543.5669">vorhanden</text><!--class AbstractFluentBuilderGenerator--><rect fill="#FEFECE" filter="url(#ft54d7i)" height="48" style="stroke: #A80036; stroke-width: 1.5;" width="231" x="224" y="181"/><ellipse cx="239" cy="197" fill="#ADD1B2" rx="11" ry="11" style="stroke: #A80036; stroke-width: 1.0;"/><path d="M241.9688,202.6406 Q241.3906,202.9375 240.75,203.0859 Q240.1094,203.2344 239.4063,203.2344 Q236.9063,203.2344 235.5859,201.5859 Q234.2656,199.9375 234.2656,196.8125 Q234.2656,193.6875 235.5859,192.0313 Q236.9063,190.375 239.4063,190.375 Q240.1094,190.375 240.7578,190.5313 Q241.4063,190.6875 241.9688,190.9844 L241.9688,193.7031 Q241.3438,193.125 240.75,192.8516 Q240.1563,192.5781 239.5313,192.5781 Q238.1875,192.5781 237.5,193.6484 Q236.8125,194.7188 236.8125,196.8125 Q236.8125,198.9063 237.5,199.9766 Q238.1875,201.0469 239.5313,201.0469 Q240.1563,201.0469 240.75,200.7734 Q241.3438,200.5 241.9688,199.9219 L241.9688,202.6406 Z "/><text fill="#000000" font-family="sans-serif" font-size="12" lengthAdjust="spacingAndGlyphs" textLength="199" x="253" y="201.1543">AbstractFluentBuilderGenerator</text><line style="stroke: #A80036; stroke-width: 1.5;" x1="225" x2="454" y1="213" y2="213"/><line style="stroke: #A80036; stroke-width: 1.5;" x1="225" x2="454" y1="221" y2="221"/><polygon fill="#FBFB77" filter="url(#ft54d7i)" points="66,192.5,66,217.6328,155,217.6328,155,202.5,145,192.5,66,192.5" style="stroke: #A80036; stroke-width: 1.0;"/><polygon fill="#FBFB77" points="66,192.5,66,217.6328,155,217.6328,155,210.5,223.969,205,155,202.5,155,202.5,145,192.5,66,192.5" style="stroke: #A80036; stroke-width: 1.0;"/><line style="stroke: #A80036; stroke-width: 1.0;" x1="145" x2="145" y1="192.5" y2="202.5"/><line style="stroke: #A80036; stroke-width: 1.0;" x1="155" x2="145" y1="202.5" y2="202.5"/><text fill="#000000" font-family="sans-serif" font-size="13" lengthAdjust="spacingAndGlyphs" textLength="68" x="72" y="209.5669">vorhanden</text><!--class StatechartIntegrationTest--><rect fill="#FEFECE" filter="url(#ft54d7i)" height="48" style="stroke: #A80036; stroke-width: 1.5;" width="195" x="242" y="348"/><ellipse cx="257" cy="364" fill="#ADD1B2" rx="11" ry="11" style="stroke: #A80036; stroke-width: 1.0;"/><path d="M259.9688,369.6406 Q259.3906,369.9375 258.75,370.0859 Q258.1094,370.2344 257.4063,370.2344 Q254.9063,370.2344 253.5859,368.5859 Q252.2656,366.9375 252.2656,363.8125 Q252.2656,360.6875 253.5859,359.0313 Q254.9063,357.375 257.4063,357.375 Q258.1094,357.375 258.7578,357.5313 Q259.4063,357.6875 259.9688,357.9844 L259.9688,360.7031 Q259.3438,360.125 258.75,359.8516 Q258.1563,359.5781 257.5313,359.5781 Q256.1875,359.5781 255.5,360.6484 Q254.8125,361.7188 254.8125,363.8125 Q254.8125,365.9063 255.5,366.9766 Q256.1875,368.0469 257.5313,368.0469 Q258.1563,368.0469 258.75,367.7734 Q259.3438,367.5 259.9688,366.9219 L259.9688,369.6406 Z "/><text fill="#000000" font-family="sans-serif" font-size="12" lengthAdjust="spacingAndGlyphs" textLength="163" x="271" y="368.1543">StatechartIntegrationTest</text><line style="stroke: #A80036; stroke-width: 1.5;" x1="243" x2="436" y1="380" y2="380"/><line style="stroke: #A80036; stroke-width: 1.5;" x1="243" x2="436" y1="388" y2="388"/><polygon fill="#FBFB77" filter="url(#ft54d7i)" points="506,359.5,506,384.6328,595,384.6328,595,369.5,585,359.5,506,359.5" style="stroke: #A80036; stroke-width: 1.0;"/><polygon fill="#FBFB77" points="506,359.5,506,368,437.17,372,506,376,506,384.6328,595,384.6328,595,369.5,585,359.5,506,359.5" style="stroke: #A80036; stroke-width: 1.0;"/><line style="stroke: #A80036; stroke-width: 1.0;" x1="585" x2="585" y1="359.5" y2="369.5"/><line style="stroke: #A80036; stroke-width: 1.0;" x1="595" x2="585" y1="369.5" y2="369.5"/><text fill="#000000" font-family="sans-serif" font-size="13" lengthAdjust="spacingAndGlyphs" textLength="68" x="512" y="376.5669">vorhanden</text><path d="M77.0877,59.07 C57.1832,96.481 24.6117,172.215 48.5,232 C98.6082,357.404 227.273,460.772 295.499,508.8872 " fill="none" style="stroke: #A80036; stroke-width: 1.0;"/><polygon fill="#A80036" points="299.904,511.9762,294.8328,503.5333,295.8106,509.105,290.2389,510.0827,299.904,511.9762" style="stroke: #A80036; stroke-width: 1.0;"/><text fill="#000000" font-family="sans-serif" font-size="13" lengthAdjust="spacingAndGlyphs" textLength="23" x="158.5" y="275.0669">use</text><polygon fill="#FFFF00" filter="url(#ft54d7i)" points="100.5,284.1328,100.5,309.1328,235.5,309.1328,235.5,294.1328,225.5,284.1328,100.5,284.1328" style="stroke: #A80036; stroke-width: 1.0;"/><line style="stroke: #A80036; stroke-width: 1.0;" x1="225.5" x2="225.5" y1="284.1328" y2="294.1328"/><line style="stroke: #A80036; stroke-width: 1.0;" x1="235.5" x2="225.5" y1="294.1328" y2="294.1328"/><text fill="#000000" font-family="sans-serif" font-size="13" lengthAdjust="spacingAndGlyphs" textLength="114" x="106.5" y="301.1997">II.1. spezifiziert (II)</text><path d="M110.931,59.036 C133.611,83.555 172.222,122.289 211.5,148 C229.725,159.93 250.914,170.381 270.745,178.923 " fill="none" style="stroke: #A80036; stroke-width: 1.0;"/><polygon fill="#A80036" points="275.486,180.94,268.7723,173.734,270.8856,178.9813,265.6384,181.0946,275.486,180.94" style="stroke: #A80036; stroke-width: 1.0;"/><text fill="#000000" font-family="sans-serif" font-size="13" lengthAdjust="spacingAndGlyphs" textLength="23" x="269.5" y="105.0669">use</text><polygon fill="#FFFF00" filter="url(#ft54d7i)" points="216.5,114.1328,216.5,139.1328,341.5,139.1328,341.5,124.1328,331.5,114.1328,216.5,114.1328" style="stroke: #A80036; stroke-width: 1.0;"/><line style="stroke: #A80036; stroke-width: 1.0;" x1="331.5" x2="331.5" y1="114.1328" y2="124.1328"/><line style="stroke: #A80036; stroke-width: 1.0;" x1="341.5" x2="331.5" y1="124.1328" y2="124.1328"/><text fill="#000000" font-family="sans-serif" font-size="13" lengthAdjust="spacingAndGlyphs" textLength="104" x="222.5" y="131.1997">II.2. generiert (II)</text><path d="M641.575,64.196 C570.678,97.009 454.959,150.564 389.235,180.982 " fill="none" style="stroke: #A80036; stroke-width: 1.0;"/><polygon fill="#A80036" points="646.18,62.066,636.3323,62.2163,641.6425,64.1662,639.6926,69.4764,646.18,62.066" style="stroke: #A80036; stroke-width: 1.0;"/><polygon fill="#FFFF00" filter="url(#ft54d7i)" points="580.5,105.5,580.5,130.5,698.5,130.5,698.5,115.5,688.5,105.5,580.5,105.5" style="stroke: #A80036; stroke-width: 1.0;"/><line style="stroke: #A80036; stroke-width: 1.0;" x1="688.5" x2="688.5" y1="105.5" y2="115.5"/><line style="stroke: #A80036; stroke-width: 1.0;" x1="698.5" x2="688.5" y1="115.5" y2="115.5"/><text fill="#000000" font-family="sans-serif" font-size="13" lengthAdjust="spacingAndGlyphs" textLength="97" x="586.5" y="122.5669">II.3. schreibt (II)</text><path d="M791.792,69.115 C877.762,100.998 1006.05,148.575 1085.05,177.873 " fill="none" style="stroke: #A80036; stroke-width: 1.0;"/><polygon fill="none" points="789.102,75.583,772.784,62.066,793.97,62.457,789.102,75.583" style="stroke: #A80036; stroke-width: 1.0;"/><path d="M339.5,396.291 C339.5,425.213 339.5,474.655 339.5,506.8243 " fill="none" style="stroke: #A80036; stroke-width: 1.0;"/><polygon fill="#A80036" points="339.5,511.8332,343.5,502.8332,339.5,506.8332,335.5,502.8332,339.5,511.8332" style="stroke: #A80036; stroke-width: 1.0;"/><text fill="#000000" font-family="sans-serif" font-size="13" lengthAdjust="spacingAndGlyphs" textLength="23" x="399.5" y="439.0669">use</text><polygon fill="#FFFF00" filter="url(#ft54d7i)" points="344.5,448.1328,344.5,473.1328,473.5,473.1328,473.5,458.1328,463.5,448.1328,344.5,448.1328" style="stroke: #A80036; stroke-width: 1.0;"/><line style="stroke: #A80036; stroke-width: 1.0;" x1="463.5" x2="463.5" y1="448.1328" y2="458.1328"/><line style="stroke: #A80036; stroke-width: 1.0;" x1="473.5" x2="463.5" y1="458.1328" y2="458.1328"/><text fill="#000000" font-family="sans-serif" font-size="13" lengthAdjust="spacingAndGlyphs" textLength="108" x="350.5" y="465.1997">I.1. spezifiziert (I)</text><path d="M339.5,234.659 C339.5,266.757 339.5,318.159 339.5,347.828 " fill="none" style="stroke: #A80036; stroke-width: 1.0;"/><polygon fill="#A80036" points="339.5,229.291,335.5,238.291,339.5,234.291,343.5,238.291,339.5,229.291" style="stroke: #A80036; stroke-width: 1.0;"/><text fill="#000000" font-family="sans-serif" font-size="13" lengthAdjust="spacingAndGlyphs" textLength="23" x="394.5" y="275.0669">use</text><polygon fill="#FFFF00" filter="url(#ft54d7i)" points="344.5,284.1328,344.5,309.1328,463.5,309.1328,463.5,294.1328,453.5,284.1328,344.5,284.1328" style="stroke: #A80036; stroke-width: 1.0;"/><line style="stroke: #A80036; stroke-width: 1.0;" x1="453.5" x2="453.5" y1="284.1328" y2="294.1328"/><line style="stroke: #A80036; stroke-width: 1.0;" x1="463.5" x2="453.5" y1="294.1328" y2="294.1328"/><text fill="#000000" font-family="sans-serif" font-size="13" lengthAdjust="spacingAndGlyphs" textLength="98" x="350.5" y="301.1997">I.2. generiert (I)</text><path d="M455.051,205 C504.005,205 561.104,205 610.809,205 " fill="none" style="stroke: #A80036; stroke-width: 1.0;"/><polygon fill="#A80036" points="615.903,205,606.903,201,610.903,205,606.903,209,615.903,205" style="stroke: #A80036; stroke-width: 1.0;"/><polygon fill="#FFFF00" filter="url(#ft54d7i)" points="477.5,168,477.5,193,589.5,193,589.5,178,579.5,168,477.5,168" style="stroke: #A80036; stroke-width: 1.0;"/><line style="stroke: #A80036; stroke-width: 1.0;" x1="579.5" x2="579.5" y1="168" y2="178"/><line style="stroke: #A80036; stroke-width: 1.0;" x1="589.5" x2="579.5" y1="178" y2="178"/><text fill="#000000" font-family="sans-serif" font-size="13" lengthAdjust="spacingAndGlyphs" textLength="91" x="483.5" y="185.0669">I.3. schreibt (I)</text><path d="M711.772,250.198 C690.288,291.04 654.587,351.889 612.5,396 C566.705,443.998 549.202,451.097 490.5,482 C468.852,493.3967 444.361,503.5448 421.501,511.9666 " fill="none" style="stroke: #A80036; stroke-width: 1.0;"/><polygon fill="none" points="705.656,246.784,721.011,232.181,718.114,253.172,705.656,246.784" style="stroke: #A80036; stroke-width: 1.0;"/></g></svg>