<?xml version="1.0" encoding="UTF-8" standalone="no"?><svg xmlns="http://www.w3.org/2000/svg" xmlns:xlink="http://www.w3.org/1999/xlink" contentScriptType="application/ecmascript" contentStyleType="text/css" height="289px" preserveAspectRatio="none" style="width:468px;height:289px;" version="1.1" viewBox="0 0 468 289" width="468px" zoomAndPan="magnify"><defs><filter height="300%" id="fnomh2c" width="300%" x="-1" y="-1"><feGaussianBlur result="blurOut" stdDeviation="2.0"/><feColorMatrix in="blurOut" result="blurOut2" type="matrix" values="0 0 0 0 0 0 0 0 0 0 0 0 0 0 0 0 0 0 .4 0"/><feOffset dx="4.0" dy="4.0" in="blurOut2" result="blurOut3"/><feBlend in="SourceGraphic" in2="blurOut3" mode="normal"/></filter></defs><g><rect fill="#FEFECE" filter="url(#fnomh2c)" height="50" rx="12.5" ry="12.5" style="stroke: #A80036; stroke-width: 1.5;" width="63" x="82.7241" y="8"/><line style="stroke: #A80036; stroke-width: 1.5;" x1="82.7241" x2="145.7241" y1="34.2969" y2="34.2969"/><text fill="#000000" font-family="sans-serif" font-size="14" lengthAdjust="spacingAndGlyphs" textLength="43" x="92.7241" y="25.9951">Empty</text><ellipse cx="172.224" cy="272" fill="none" filter="url(#fnomh2c)" rx="10" ry="10" style="stroke: #000000; stroke-width: 1.0;"/><ellipse cx="172.724" cy="272.5" fill="#000000" rx="6" ry="6" style="stroke: none; stroke-width: 1.0;"/><rect fill="#FEFECE" filter="url(#fnomh2c)" height="50" rx="12.5" ry="12.5" style="stroke: #A80036; stroke-width: 1.5;" width="91" x="211.724" y="135"/><line style="stroke: #A80036; stroke-width: 1.5;" x1="211.724" x2="302.724" y1="161.2969" y2="161.2969"/><text fill="#000000" font-family="sans-serif" font-size="14" lengthAdjust="spacingAndGlyphs" textLength="71" x="221.724" y="152.9951">Not Empty</text><path d="M82.593,55.037 C43.8347,83.577 -13.5793,136.572 13.2241,185 C43.6618,239.9948 123.796,261.5777 157.234,268.3673 " fill="none" style="stroke: #A80036; stroke-width: 1.0;"/><polygon fill="#A80036" points="162.185,269.3328,154.1171,263.6839,157.2775,268.3757,152.5857,271.536,162.185,269.3328" style="stroke: #A80036; stroke-width: 1.0;"/><text fill="#000000" font-family="sans-serif" font-size="13" lengthAdjust="spacingAndGlyphs" textLength="56" x="14.2241" y="164.5669">enqueue</text><path d="M117.377,58.04 C121.573,88.037 129.813,140.776 141.224,185 C146.737,206.3663 149.706,211.2539 157.224,232 C160.316,240.534 163.969,250.0426 166.896,257.5344 " fill="none" style="stroke: #A80036; stroke-width: 1.0;"/><polygon fill="#A80036" points="168.79,262.362,169.2259,252.5228,166.9635,257.7075,161.7787,255.4452,168.79,262.362" style="stroke: #A80036; stroke-width: 1.0;"/><text fill="#000000" font-family="sans-serif" font-size="13" lengthAdjust="spacingAndGlyphs" textLength="51" x="142.224" y="164.5669">isEmpty</text><path d="M141.796,58.101 C165.832,79.112 200.682,109.575 225.793,131.526 " fill="none" style="stroke: #A80036; stroke-width: 1.0;"/><polygon fill="#A80036" points="229.737,134.973,225.5911,126.0393,225.9716,131.6833,220.3276,132.0638,229.737,134.973" style="stroke: #A80036; stroke-width: 1.0;"/><text fill="#000000" font-family="sans-serif" font-size="13" lengthAdjust="spacingAndGlyphs" textLength="56" x="196.224" y="101.0669">enqueue</text><path d="M302.74,154.239 C321.674,153.841 337.724,155.762 337.724,160 C337.724,163.841 324.542,165.778 307.978,165.812 " fill="none" style="stroke: #A80036; stroke-width: 1.0;"/><polygon fill="#A80036" points="302.74,165.761,311.7007,169.8482,307.7398,165.8096,311.7784,161.8486,302.74,165.761" style="stroke: #A80036; stroke-width: 1.0;"/><text fill="#000000" font-family="sans-serif" font-size="13" lengthAdjust="spacingAndGlyphs" textLength="56" x="343.724" y="164.5669">enqueue</text><path d="M303.015,150.561 C349.206,145.743 405.724,148.89 405.724,160 C405.724,170.698 353.323,174.012 308.197,169.943 " fill="none" style="stroke: #A80036; stroke-width: 1.0;"/><polygon fill="#A80036" points="303.015,169.439,311.5867,174.2894,307.9916,169.9218,312.3592,166.3267,303.015,169.439" style="stroke: #A80036; stroke-width: 1.0;"/><text fill="#000000" font-family="sans-serif" font-size="13" lengthAdjust="spacingAndGlyphs" textLength="56" x="411.724" y="164.5669">dequeue</text><path d="M211.549,177.815 C195.185,186.3115 178.503,198.4194 169.224,215 C161.967,227.9673 164.43,245.3775 167.602,257.3238 " fill="none" style="stroke: #A80036; stroke-width: 1.0;"/><polygon fill="#A80036" points="169.077,262.3926,170.4031,252.6334,167.68,257.5917,162.7217,254.8686,169.077,262.3926" style="stroke: #A80036; stroke-width: 1.0;"/><text fill="#000000" font-family="sans-serif" font-size="13" lengthAdjust="spacingAndGlyphs" textLength="51" x="170.224" y="228.0669">isEmpty</text><path d="M250.293,185.1078 C245.261,199.7333 237.367,218.178 226.224,232 C214.947,245.9886 197.467,257.3632 185.467,264.144 " fill="none" style="stroke: #A80036; stroke-width: 1.0;"/><polygon fill="#A80036" points="181.006,266.5968,190.8196,265.764,185.387,264.187,186.964,258.7544,181.006,266.5968" style="stroke: #A80036; stroke-width: 1.0;"/><text fill="#000000" font-family="sans-serif" font-size="13" lengthAdjust="spacingAndGlyphs" textLength="21" x="238.224" y="228.0669">top</text><path d="M268.938,185.2226 C274.206,199.8913 277.418,218.3411 268.224,232 C250.073,258.965 209.72,267.2942 187.548,269.8612 " fill="none" style="stroke: #A80036; stroke-width: 1.0;"/><polygon fill="#A80036" points="182.328,270.3975,191.6899,273.456,187.3018,269.8861,190.8717,265.4979,182.328,270.3975" style="stroke: #A80036; stroke-width: 1.0;"/><text fill="#000000" font-family="sans-serif" font-size="13" lengthAdjust="spacingAndGlyphs" textLength="57" x="275.224" y="228.0669">compare</text></g></svg>