<?xml version="1.0" encoding="UTF-8" standalone="no"?><svg xmlns="http://www.w3.org/2000/svg" xmlns:xlink="http://www.w3.org/1999/xlink" contentScriptType="application/ecmascript" contentStyleType="text/css" height="416px" preserveAspectRatio="none" style="width:411px;height:416px;" version="1.1" viewBox="0 0 411 416" width="411px" zoomAndPan="magnify"><defs><filter height="300%" id="fd3aifv" width="300%" x="-1" y="-1"><feGaussianBlur result="blurOut" stdDeviation="2.0"/><feColorMatrix in="blurOut" result="blurOut2" type="matrix" values="0 0 0 0 0 0 0 0 0 0 0 0 0 0 0 0 0 0 .4 0"/><feOffset dx="4.0" dy="4.0" in="blurOut2" result="blurOut3"/><feBlend in="SourceGraphic" in2="blurOut3" mode="normal"/></filter></defs><g><rect fill="#FEFECE" filter="url(#fd3aifv)" height="50" rx="12.5" ry="12.5" style="stroke: #A80036; stroke-width: 1.5;" width="91" x="6" y="135"/><line style="stroke: #A80036; stroke-width: 1.5;" x1="6" x2="97" y1="161.2969" y2="161.2969"/><text fill="#000000" font-family="sans-serif" font-size="14" lengthAdjust="spacingAndGlyphs" textLength="71" x="16" y="152.9951">Zustand 2</text><rect fill="#FEFECE" filter="url(#fd3aifv)" height="50" rx="12.5" ry="12.5" style="stroke: #A80036; stroke-width: 1.5;" width="91" x="6" y="262"/><line style="stroke: #A80036; stroke-width: 1.5;" x1="6" x2="97" y1="288.2969" y2="288.2969"/><text fill="#000000" font-family="sans-serif" font-size="14" lengthAdjust="spacingAndGlyphs" textLength="71" x="16" y="279.9951">Zustand 3</text><rect fill="#FEFECE" filter="url(#fd3aifv)" height="50" rx="12.5" ry="12.5" style="stroke: #A80036; stroke-width: 1.5;" width="91" x="6" y="8"/><line style="stroke: #A80036; stroke-width: 1.5;" x1="6" x2="97" y1="34.2969" y2="34.2969"/><text fill="#000000" font-family="sans-serif" font-size="14" lengthAdjust="spacingAndGlyphs" textLength="71" x="16" y="25.9951">Zustand 1</text><ellipse cx="51.5" cy="399" fill="none" filter="url(#fd3aifv)" rx="10" ry="10" style="stroke: #000000; stroke-width: 1.0;"/><ellipse cx="52" cy="399.5" fill="#000000" rx="6" ry="6" style="stroke: none; stroke-width: 1.0;"/><path d="M97.0156,148.477 C115.95,147.682 132,151.523 132,160 C132,167.682 118.818,171.557 102.2539,171.624 " fill="none" style="stroke: #A80036; stroke-width: 1.0;"/><polygon fill="#A80036" points="97.0156,171.523,105.9365,175.6964,102.0147,171.6197,106.0913,167.6979,97.0156,171.523" style="stroke: #A80036; stroke-width: 1.0;"/><text fill="#000000" font-family="sans-serif" font-size="13" lengthAdjust="spacingAndGlyphs" textLength="59" x="138" y="164.5669">addState</text><path d="M51.5,185.101 C51.5,205.593 51.5,235.076 51.5,256.884 " fill="none" style="stroke: #A80036; stroke-width: 1.0;"/><polygon fill="#A80036" points="51.5,261.973,55.5,252.973,51.5,256.973,47.5,252.973,51.5,261.973" style="stroke: #A80036; stroke-width: 1.0;"/><text fill="#000000" font-family="sans-serif" font-size="13" lengthAdjust="spacingAndGlyphs" textLength="92" x="52.5" y="228.0669">withStartState</text><path d="M51.5,58.101 C51.5,78.593 51.5,108.076 51.5,129.884 " fill="none" style="stroke: #A80036; stroke-width: 1.0;"/><polygon fill="#A80036" points="51.5,134.973,55.5,125.973,51.5,129.973,47.5,125.973,51.5,134.973" style="stroke: #A80036; stroke-width: 1.0;"/><text fill="#000000" font-family="sans-serif" font-size="13" lengthAdjust="spacingAndGlyphs" textLength="153" x="52.5" y="101.0669">withQualifiedClassName</text><path d="M97.0156,283.159 C115.95,282.894 132,284.174 132,287 C132,289.561 118.818,290.852 102.2539,290.875 " fill="none" style="stroke: #A80036; stroke-width: 1.0;"/><polygon fill="#A80036" points="97.0156,290.841,105.9895,294.8993,102.0155,290.8734,106.0414,286.8995,97.0156,290.841" style="stroke: #A80036; stroke-width: 1.0;"/><text fill="#000000" font-family="sans-serif" font-size="13" lengthAdjust="spacingAndGlyphs" textLength="81" x="138" y="291.5669">addEmission</text><path d="M97.4082,281.01 C151.417,277.374 225,279.371 225,287 C225,294.391 155.944,296.495 102.5261,293.314 " fill="none" style="stroke: #A80036; stroke-width: 1.0;"/><polygon fill="#A80036" points="97.4082,292.99,106.1371,297.5513,102.3982,293.3063,106.6432,289.5673,97.4082,292.99" style="stroke: #A80036; stroke-width: 1.0;"/><text fill="#000000" font-family="sans-serif" font-size="13" lengthAdjust="spacingAndGlyphs" textLength="81" x="231" y="291.5669">addEmission</text><path d="M97.061,279.692 C177.919,272.091 318,274.527 318,287 C318,299.205 183.874,301.799 102.3526,294.784 " fill="none" style="stroke: #A80036; stroke-width: 1.0;"/><polygon fill="#A80036" points="97.061,294.308,105.6663,299.0985,102.0409,294.7561,106.3833,291.1307,97.061,294.308" style="stroke: #A80036; stroke-width: 1.0;"/><text fill="#000000" font-family="sans-serif" font-size="13" lengthAdjust="spacingAndGlyphs" textLength="86" x="324" y="291.5669">addTransition</text><path d="M29.0486,312.2649 C22.3863,320.989 15.9513,331.3267 12.5,342 C10.1754,349.1891 9.6086,352.0196 12.5,359 C17.8534,371.9242 29.7979,382.7986 39.0673,389.7536 " fill="none" style="stroke: #A80036; stroke-width: 1.0;"/><polygon fill="#A80036" points="43.3622,392.8449,38.3942,384.3408,39.3041,389.924,33.7208,390.8339,43.3622,392.8449" style="stroke: #A80036; stroke-width: 1.0;"/><text fill="#000000" font-family="sans-serif" font-size="13" lengthAdjust="spacingAndGlyphs" textLength="30" x="13.5" y="355.0669">build</text><path d="M51.5,312.14 C51.5,334.0338 51.5,365.5738 51.5,383.7062 " fill="none" style="stroke: #A80036; stroke-width: 1.0;"/><polygon fill="#A80036" points="51.5,388.8775,55.5,379.8775,51.5,383.8775,47.5,379.8775,51.5,388.8775" style="stroke: #A80036; stroke-width: 1.0;"/><text fill="#000000" font-family="sans-serif" font-size="13" lengthAdjust="spacingAndGlyphs" textLength="30" x="52.5" y="355.0669">build</text></g></svg>